<svg width="16" height="16" viewBox="0 0 16 16" fill="none" xmlns="http://www.w3.org/2000/svg">
<path d="M2.49995 3H13.4999C13.7652 3 14.0195 3.10536 14.2071 3.29289C14.3946 3.48043 14.4999 3.73478 14.4999 4V13.925C14.5019 14.1163 14.448 14.304 14.3447 14.465C14.2414 14.626 14.0934 14.7533 13.9187 14.8313C13.789 14.8973 13.6455 14.9316 13.4999 14.9313C13.2641 14.9305 13.0361 14.8464 12.8562 14.6938L10.8687 13.025L2.49995 13C2.23473 13 1.98038 12.8946 1.79284 12.7071C1.6053 12.5196 1.49995 12.2652 1.49995 12V4C1.49995 3.73478 1.6053 3.48043 1.79284 3.29289C1.98038 3.10536 2.23473 3 2.49995 3ZM10.9999 8.75C11.1483 8.75 11.2933 8.70601 11.4166 8.6236C11.54 8.54119 11.6361 8.42406 11.6929 8.28701C11.7496 8.14997 11.7645 7.99917 11.7355 7.85368C11.7066 7.7082 11.6352 7.57456 11.5303 7.46967C11.4254 7.36478 11.2918 7.29335 11.1463 7.26441C11.0008 7.23547 10.85 7.25033 10.7129 7.30709C10.5759 7.36386 10.4588 7.45999 10.3763 7.58332C10.2939 7.70666 10.2499 7.85166 10.2499 8C10.2499 8.19891 10.329 8.38968 10.4696 8.53033C10.6103 8.67098 10.801 8.75 10.9999 8.75ZM7.99995 8.75C8.14828 8.75 8.29329 8.70601 8.41663 8.6236C8.53996 8.54119 8.63609 8.42406 8.69286 8.28701C8.74962 8.14997 8.76448 7.99917 8.73554 7.85368C8.7066 7.7082 8.63517 7.57456 8.53028 7.46967C8.42539 7.36478 8.29175 7.29335 8.14627 7.26441C8.00078 7.23547 7.84998 7.25033 7.71294 7.30709C7.57589 7.36386 7.45876 7.45999 7.37635 7.58332C7.29393 7.70666 7.24995 7.85166 7.24995 8C7.24995 8.19891 7.32897 8.38968 7.46962 8.53033C7.61027 8.67098 7.80103 8.75 7.99995 8.75ZM4.99995 8.75C5.14828 8.75 5.29329 8.70601 5.41663 8.6236C5.53996 8.54119 5.63609 8.42406 5.69286 8.28701C5.74962 8.14997 5.76447 7.99917 5.73554 7.85368C5.7066 7.7082 5.63517 7.57456 5.53028 7.46967C5.42539 7.36478 5.29175 7.29335 5.14627 7.26441C5.00078 7.23547 4.84998 7.25033 4.71294 7.30709C4.57589 7.36386 4.45876 7.45999 4.37635 7.58332C4.29393 7.70666 4.24995 7.85166 4.24995 8C4.24995 8.19891 4.32897 8.38968 4.46962 8.53033C4.61027 8.67098 4.80103 8.75 4.99995 8.75Z" fill="#0B0B0B"/>
</svg>
