<svg width="166" height="32" viewBox="0 0 166 32" fill="none" xmlns="http://www.w3.org/2000/svg">
<path d="M11.4101 12.9759C11.7056 13.3561 11.9273 13.7842 12.075 14.2601C12.223 14.7357 12.297 15.243 12.297 15.7823C12.297 16.9709 11.9654 17.9858 11.302 18.8258C10.5668 19.7615 9.57633 20.2291 8.32978 20.2291H0V17.197H7.79049C8.1501 17.197 8.43759 17.0583 8.65346 16.781C8.84512 16.5354 8.94094 16.2299 8.94094 15.8652C8.94094 15.5084 8.84911 15.2155 8.66518 14.9853C8.45755 14.7238 8.16581 14.5931 7.79049 14.5931H0V11.3586H7.79049C8.15782 11.3586 8.44158 11.2345 8.64148 10.986C8.84112 10.7372 8.94094 10.4433 8.94094 10.104C8.94094 9.7411 8.84512 9.43741 8.65346 9.19287C8.43759 8.91664 8.1501 8.77826 7.79049 8.77826H0V5.71067H8.32978C9.56835 5.71067 10.5628 6.18576 11.3143 7.13513C11.9933 7.99789 12.333 9.02676 12.333 10.2217C12.333 10.752 12.255 11.2546 12.0992 11.7294C11.9433 12.2042 11.7135 12.6199 11.4101 12.9759Z" fill="white"/>
<path d="M25.9001 20.229H20.0632C18.2177 20.229 16.7553 19.7695 15.6767 18.8508C14.8297 18.1301 14.2305 17.1477 13.8789 15.9045C13.647 15.0884 13.5312 14.2014 13.5312 13.243C13.5312 13.0215 13.5334 12.8649 13.5374 12.7735C13.5414 12.6827 13.5512 12.6013 13.5674 12.53V5.71067H16.8032V12.5287C16.8032 13.7562 17.063 14.7892 17.5823 15.6288C18.1818 16.595 19.0086 17.078 20.0632 17.078H25.9001V20.229Z" fill="white"/>
<path d="M41.6968 20.2292H38.2331L34.4096 9.05191C34.3857 8.93308 34.3018 8.87339 34.1581 8.87339C34.0221 8.87339 33.9222 8.93308 33.8584 9.05191L30.119 20.2292H26.6074C26.8068 19.5394 27.2364 18.1683 27.8958 16.115C28.5548 14.0621 29.1961 12.1197 29.8195 10.2886C30.5145 8.25148 30.9378 7.11804 31.0897 6.88777C31.3775 6.48346 31.797 6.17448 32.3483 5.96031C32.8996 5.74641 33.4987 5.63945 34.1461 5.63945C34.7932 5.63945 35.3905 5.74641 35.9378 5.96031C36.4851 6.17448 36.9025 6.48346 37.1905 6.88777C37.3659 7.12597 37.7974 8.25148 38.4847 10.2646C38.9082 11.5013 39.5393 13.4436 40.3784 16.0913C40.8897 17.7006 41.3292 19.0796 41.6968 20.2292Z" fill="white"/>
<path d="M53.6943 20.229H46.5393C44.8213 20.229 43.463 19.4883 42.4643 18.0073C41.5694 16.6766 41.1219 15.0369 41.1219 13.0886C41.1219 11.1085 41.5773 9.42153 42.4882 8.02745C43.4949 6.48284 44.845 5.71067 46.5393 5.71067H53.6943V8.77823H47.0786C46.2795 8.77823 45.6524 9.19786 45.1969 10.0368C44.7894 10.7892 44.5855 11.7193 44.5855 12.8274C44.5855 13.9672 44.7971 14.9411 45.2209 15.7481C45.684 16.6346 46.3035 17.078 47.0786 17.078H53.6943V20.229Z" fill="white"/>
<path d="M67.5494 20.5468L58.2728 16.9115V20.2288H55.0368V5.69894H58.2728V9.24183L67.5494 5.58855V9.07255L58.7642 12.7823V13.3295L67.5494 17.1225V20.5468Z" fill="white"/>
<path d="M109.293 8.77823H101.502C101.151 8.77823 100.873 8.91054 100.669 9.17488C100.466 9.43923 100.364 9.74899 100.364 10.1039C100.364 10.4512 100.462 10.747 100.658 10.9918C100.853 11.2366 101.135 11.3586 101.502 11.3586H106.093C107.331 11.3586 108.31 11.8183 109.029 12.7379C109.676 13.5623 110 14.5809 110 15.7938C110 16.9988 109.676 18.0174 109.029 18.8495C108.31 19.7693 107.331 20.229 106.093 20.229H97.7388V17.1372H105.565C105.901 17.1372 106.165 17.0007 106.356 16.7273C106.548 16.4535 106.644 16.1384 106.644 15.7819C106.644 15.4251 106.552 15.122 106.368 14.8724C106.185 14.6226 105.917 14.4977 105.565 14.4977H100.963C99.7166 14.4977 98.7298 14.0424 98.0026 13.1321C97.3472 12.3169 97.0198 11.3073 97.0198 10.1042C97.0198 8.91688 97.3472 7.91152 98.0026 7.08785C98.7378 6.16991 99.7243 5.71067 100.963 5.71067H109.293V8.77823Z" fill="white"/>
<path d="M123.148 20.5468L113.871 16.9115V20.2288H110.635V5.69894H113.871V9.24183L123.148 5.58855V9.07255L114.363 12.7823V13.3295L123.148 17.1225V20.5468Z" fill="white"/>
<path d="M136.751 15.0252C136.751 16.7042 136.096 18.0428 134.786 19.0408C133.603 19.9437 132.157 20.3955 130.447 20.3955C128.785 20.3955 127.387 19.9519 126.252 19.0645C124.982 18.0748 124.346 16.7282 124.346 15.0252V5.71046H127.523V14.5002C127.523 15.2604 127.85 15.8702 128.506 16.3295C129.105 16.7493 129.828 16.959 130.675 16.959C131.49 16.959 132.177 16.7573 132.736 16.3532C133.36 15.9019 133.671 15.2845 133.671 14.5002V5.71046H136.751V15.0252Z" fill="white"/>
<path d="M150.439 20.229H144.602C142.756 20.229 141.294 19.7695 140.215 18.8508C139.368 18.1301 138.769 17.1477 138.417 15.9045C138.185 15.0884 138.07 14.2014 138.07 13.243C138.07 13.0215 138.072 12.8649 138.076 12.7735C138.08 12.6827 138.089 12.6013 138.106 12.53V5.71067H141.342V12.5287C141.342 13.7562 141.601 14.7892 142.121 15.6288C142.72 16.595 143.547 17.078 144.602 17.078H150.439V20.229Z" fill="white"/>
<path d="M164.114 20.229H158.277C156.431 20.229 154.969 19.7695 153.89 18.8508C153.043 18.1301 152.444 17.1477 152.092 15.9045C151.861 15.0884 151.745 14.2014 151.745 13.243C151.745 13.0215 151.747 12.8649 151.751 12.7735C151.755 12.6827 151.765 12.6013 151.781 12.53V5.71067H155.017V12.5287C155.017 13.7562 155.276 14.7892 155.796 15.6288C156.395 16.595 157.222 17.078 158.277 17.078H164.114V20.229Z" fill="white"/>
<path d="M0.501808 29.07H1.39061V30.064H2.22272V29.07H3.11126V31.9316H2.22272V30.7974H1.39061V31.9316H0.501808V29.07Z" fill="white"/>
<path d="M8.63582 29.07H11.0233V29.8036H9.52464V30.1604H10.886V30.8415H9.52464V31.198H11.0678V31.9316H8.63582V29.07Z" fill="white"/>
<path d="M17.3441 29.07H18.2126L19.263 31.9316H18.342L18.2209 31.5228H17.3036L17.1745 31.9316H16.2818L17.3441 29.07ZM18.0428 30.9096L17.7844 30.0281H17.7764L17.4977 30.9096H18.0428Z" fill="white"/>
<path d="M25.963 31.9316H24.9693L24.1087 29.07H25.0055L25.4782 30.8053H25.4862L25.9507 29.07H26.8637L25.963 31.9316Z" fill="white"/>
<path d="M32.7522 30.8777L31.7383 29.07H32.72L33.2007 30.1242L33.7014 29.07H34.6752L33.641 30.8777V31.9316H32.7522V30.8777Z" fill="white"/>
<path d="M46.9773 30.9698C46.9773 31.0419 46.9896 31.1061 47.0095 31.1584C47.0742 31.3306 47.2683 31.3667 47.4338 31.3667C47.5792 31.3667 47.8014 31.3184 47.8014 31.1061C47.8014 30.9577 47.6761 30.9178 47.1793 30.7773C46.7228 30.6492 46.2016 30.5251 46.2016 29.9481C46.2016 29.2869 46.7713 29.0022 47.3651 29.0022C47.9915 29.0022 48.5446 29.2385 48.5691 29.936H47.7288C47.7447 29.828 47.6966 29.7556 47.6236 29.7078C47.5509 29.6552 47.4498 29.6354 47.3612 29.6354C47.24 29.6354 47.042 29.6674 47.042 29.828C47.0582 30.0321 47.4703 30.0762 47.8784 30.1884C48.2862 30.3007 48.6902 30.4889 48.6902 31.0139C48.6902 31.7594 47.9995 32 47.3572 32C47.0297 32 46.0968 31.8838 46.0885 30.9698H46.9773Z" fill="white"/>
<path d="M54.0332 29.07H55.5198C56.3035 29.07 56.5782 29.6391 56.5782 30.0479C56.5782 30.7414 56.1094 31.0662 55.4469 31.0662H54.922V31.9316H54.0332V29.07ZM54.922 30.3846H55.2653C55.4956 30.3846 55.7378 30.3685 55.7378 30.0801C55.7378 29.8195 55.5361 29.8036 55.3178 29.8036H54.922V30.3846Z" fill="white"/>
<path d="M63.323 29.0022C64.1998 29.0022 64.7854 29.6273 64.7854 30.5008C64.7854 31.3747 64.1998 32 63.323 32C62.4464 32 61.8605 31.3747 61.8605 30.5008C61.8605 29.6273 62.4464 29.0022 63.323 29.0022ZM63.323 31.2865C63.5492 31.2865 63.8966 31.1381 63.8966 30.5008C63.8966 29.8639 63.5492 29.7155 63.323 29.7155C63.097 29.7155 62.7493 29.8639 62.7493 30.5008C62.7493 31.1381 63.097 31.2865 63.323 31.2865Z" fill="white"/>
<path d="M70.229 29.07H71.9218C72.4268 29.07 72.8631 29.3468 72.8631 29.8879C72.8631 30.1842 72.7257 30.4969 72.4308 30.6051C72.6733 30.6973 72.8226 30.9619 72.8551 31.3184C72.867 31.4589 72.871 31.7993 72.952 31.9316H72.0631C72.0187 31.7871 72.0027 31.6393 71.9905 31.4908C71.9662 31.2183 71.942 30.9336 71.5904 30.9336H71.1179V31.9316H70.229V29.07ZM71.1179 30.3205H71.5824C71.748 30.3205 71.9742 30.2925 71.9742 30.0358C71.9742 29.8554 71.8731 29.7514 71.5339 29.7514H71.1179V30.3205Z" fill="white"/>
<path d="M78.8887 29.8036H78.0808V29.07H80.5853V29.8036H79.7775V31.9316H78.8887V29.8036Z" fill="white"/>
<path d="M86.6878 30.9698C86.6878 31.0419 86.7 31.1061 86.7202 31.1584C86.7849 31.3306 86.979 31.3667 87.1443 31.3667C87.2899 31.3667 87.5122 31.3184 87.5122 31.1061C87.5122 30.9577 87.3865 30.9178 86.8901 30.7773C86.4336 30.6492 85.9121 30.5251 85.9121 29.9481C85.9121 29.2869 86.482 29.0022 87.0756 29.0022C87.7017 29.0022 88.2551 29.2385 88.2796 29.936H87.4392C87.4555 29.828 87.407 29.7556 87.3344 29.7078C87.2614 29.6552 87.1603 29.6354 87.0719 29.6354C86.9505 29.6354 86.7527 29.6674 86.7527 29.828C86.7687 30.0321 87.1808 30.0762 87.5888 30.1884C87.9966 30.3007 88.4007 30.4889 88.4007 31.0139C88.4007 31.7594 87.71 32 87.0674 32C86.7405 32 85.8072 31.8838 85.7992 30.9698H86.6878Z" fill="white"/>
<path d="M100.161 29.07H101.07L101.91 30.6012H101.919V29.07H102.759V31.9316H101.894L101.01 30.3685H101.001V31.9316H100.161V29.07Z" fill="white"/>
<path d="M110.909 30.8256C110.909 31.6189 110.477 32 109.597 32C108.716 32 108.279 31.6189 108.279 30.8256V29.07H109.169V30.6294C109.169 30.9218 109.169 31.2864 109.601 31.2864C110.021 31.2864 110.021 30.9218 110.021 30.6294V29.07H110.909V30.8256Z" fill="white"/>
<path d="M117.101 29.8036H116.292V29.07H118.797V29.8036H117.989V31.9316H117.101V29.8036Z" fill="white"/>
<path d="M124.193 29.07H125.885C126.391 29.07 126.827 29.3468 126.827 29.8879C126.827 30.1842 126.69 30.4969 126.395 30.6051C126.637 30.6973 126.786 30.9619 126.819 31.3184C126.831 31.4589 126.835 31.7993 126.916 31.9316H126.027C125.983 31.7871 125.967 31.6393 125.954 31.4908C125.93 31.2183 125.906 30.9336 125.554 30.9336H125.082V31.9316H124.193V29.07ZM125.082 30.3205H125.546C125.712 30.3205 125.938 30.2925 125.938 30.0358C125.938 29.8554 125.837 29.7514 125.498 29.7514H125.082V30.3205Z" fill="white"/>
<path d="M133.139 29.07H132.25V31.9316H133.139V29.07Z" fill="white"/>
<path d="M139.339 29.8036H138.531V29.07H141.035V29.8036H140.227V31.9316H139.339V29.8036Z" fill="white"/>
<path d="M147.32 29.07H146.431V31.9316H147.32V29.07Z" fill="white"/>
<path d="M154.223 29.0022C155.099 29.0022 155.685 29.6273 155.685 30.5008C155.685 31.3747 155.099 32 154.223 32C153.346 32 152.76 31.3747 152.76 30.5008C152.76 29.6273 153.346 29.0022 154.223 29.0022ZM154.223 31.2865C154.449 31.2865 154.796 31.1381 154.796 30.5008C154.796 29.8639 154.449 29.7155 154.223 29.7155C153.996 29.7155 153.649 29.8639 153.649 30.5008C153.649 31.1381 153.996 31.2865 154.223 31.2865Z" fill="white"/>
<path d="M161.132 29.07H162.041L162.882 30.6012H162.89V29.07H163.73V31.9316H162.865L161.981 30.3685H161.973V31.9316H161.132V29.07Z" fill="white"/>
<path d="M95.7216 15.9323C94.9044 15.1493 94.865 14.1999 95.1391 13.1206C95.2483 12.6909 95.4668 9.5872 95.4668 9.47708C95.4668 8.93466 95.4996 7.84902 95.4229 7.34436C95.0968 5.19395 94.5517 4.712 93.3083 3.47848C92.1347 2.31414 90.5019 1.53088 88.9311 0.964688C88.4578 0.794356 87.9681 0.668917 87.4844 0.530275C85.9429 0.0882029 84.2393 0.00686611 82.9848 0H82.984C81.7294 0.00686611 80.0258 0.087939 78.4844 0.530011C78.0007 0.668917 77.5109 0.794092 77.0376 0.964688C75.4669 1.53088 73.8343 2.31414 72.6607 3.47848C71.4171 4.712 70.8719 5.19395 70.5459 7.34436C70.4692 7.84902 70.7205 12.6909 70.8296 13.1206C71.1038 14.1999 71.0644 15.1493 70.2472 15.9323C69.9988 16.1702 69.998 16.3965 70.1192 16.6804C70.3233 17.1595 70.4319 18.225 70.7154 18.6618C71.0231 19.1358 71.7022 19.5906 71.9806 19.7704C72.1025 19.8491 72.5726 20.1016 72.6865 20.1512C72.8694 20.231 74.3712 20.3997 74.5842 20.3997C74.7809 20.3997 76.9381 20.6298 76.9381 21.6496C76.9381 22.2929 76.8409 22.4231 76.9804 23.0627C77.0326 23.303 77.3347 24.4053 77.3187 24.4592C77.3075 24.4964 77.3054 24.958 77.3038 24.9969C77.2996 25.1157 77.3022 25.2366 77.3371 25.3502C77.372 25.464 77.4422 25.571 77.5468 25.6291C77.6714 25.6985 77.9136 25.6901 78.0561 25.6774C78.112 25.6724 78.171 25.6658 78.2163 25.6328C78.244 25.613 78.2669 24.9364 78.2975 24.6076C78.3116 24.455 78.3462 24.5181 78.3497 24.5025C78.3518 24.5088 78.3912 24.4658 78.4077 24.6224C78.4404 24.9327 78.4609 25.5509 78.471 25.5596C78.5014 25.5863 78.5453 25.5903 78.586 25.5929C78.68 25.5987 78.8389 25.6037 78.923 25.5615C78.9595 25.543 78.9917 25.5163 79.0282 25.4973C79.1083 25.4556 79.1421 25.4543 79.2305 25.4339C79.2576 25.4276 79.2853 25.4189 79.3058 25.4001C79.3287 25.3795 79.3399 25.3489 79.346 25.3185C79.3574 25.262 79.3726 25.2026 79.3553 25.1477C79.3487 25.1265 79.3194 24.5891 79.3255 24.2941C79.329 24.1185 79.3708 24.1283 79.3668 24.1106C79.3747 24.1386 79.3926 24.1304 79.4133 24.2992C79.4509 24.6058 79.4985 25.164 79.5169 25.2337C79.5243 25.2612 79.5134 25.2924 79.5275 25.3175C79.5478 25.3531 79.5954 25.3671 79.6372 25.3626C79.6793 25.3581 79.7176 25.3394 79.7567 25.3241C79.8555 25.2855 79.9021 25.2678 80.0085 25.2728C80.1121 25.2776 80.1624 25.3021 80.2529 25.2535C80.3367 25.2084 80.3769 25.1107 80.3791 25.0183C80.3799 24.985 80.3676 24.5186 80.3836 24.2693C80.3948 24.0903 80.4374 24.1074 80.4315 24.0839C80.4408 24.0826 80.4475 24.165 80.4493 24.1798C80.4621 24.2828 80.5438 25.1041 80.6237 25.1712C80.703 25.2377 80.8167 25.2403 80.9208 25.2396C81.0632 25.2382 81.0839 25.2372 81.2263 25.2361C81.2692 25.2359 81.3129 25.2353 81.353 25.2211C81.3919 25.2073 81.4255 25.1815 81.4539 25.1521C81.529 25.075 81.5756 24.4217 81.6171 24.0953C81.636 23.9456 81.6727 24.0256 81.6773 23.9754C81.6783 24.0068 81.7105 23.9574 81.7223 24.1151C81.7427 24.3911 81.7473 24.9295 81.7513 24.9844C81.7545 25.0267 81.7598 25.0732 81.7923 25.102C81.813 25.1207 81.8418 25.1286 81.8697 25.1334C82.0808 25.1696 82.3568 25.0608 82.569 25.0917C82.6563 25.1043 82.7433 25.1405 82.8301 25.1244C82.8908 25.1131 82.9068 24.516 82.9307 24.1798C82.9433 24.0031 82.9776 23.9889 82.98 23.9735C83.0306 23.9271 83.0141 24.1457 83.0159 24.1996C83.0226 24.2442 83.046 25.107 83.1386 25.1244C83.2254 25.1405 83.3125 25.1043 83.4 25.0917C83.6119 25.0608 83.8879 25.1696 84.0993 25.1334C84.1273 25.1286 84.1557 25.1207 84.1765 25.102C84.209 25.0732 84.2143 25.0267 84.2175 24.9844C84.2215 24.9303 84.2191 24.4146 84.2396 24.1399C84.2516 23.9778 84.2904 24.0076 84.2915 23.9754C84.296 24.0266 84.3093 23.9762 84.329 24.1301C84.3705 24.4558 84.4406 25.0758 84.5148 25.1521C84.5436 25.1815 84.5768 25.2073 84.6157 25.2211C84.6559 25.2353 84.6996 25.2359 84.7424 25.2361C84.8848 25.2372 84.9056 25.2382 85.0483 25.2396C85.1521 25.2403 85.2657 25.2377 85.3451 25.1712C85.3943 25.1297 85.4286 24.5379 85.468 24.2345C85.4925 24.0451 85.5338 24.0834 85.5372 24.0839C85.5319 24.1064 85.5391 24.0644 85.5495 24.2345C85.5655 24.4882 85.5889 24.9842 85.5897 25.0183C85.5918 25.1107 85.632 25.2084 85.7159 25.2535C85.8064 25.3021 85.8569 25.2776 85.9602 25.2728C86.0667 25.2678 86.1133 25.2855 86.212 25.3241C86.2512 25.3394 86.2898 25.3581 86.3315 25.3626C86.3736 25.3671 86.421 25.3531 86.4412 25.3175C86.4553 25.2924 86.4444 25.2612 86.4519 25.2337C86.4689 25.1698 86.5102 24.6034 86.5458 24.3092C86.5706 24.1051 86.5927 24.1431 86.6023 24.1106C86.5975 24.1304 86.6318 24.1233 86.6363 24.329C86.6425 24.6113 86.6196 25.1284 86.6137 25.1477C86.5961 25.2026 86.6113 25.262 86.6228 25.3185C86.6291 25.3489 86.6401 25.3795 86.6629 25.4001C86.6834 25.4189 86.7114 25.4276 86.7385 25.4339C86.8267 25.4543 86.8605 25.4556 86.9408 25.4973C86.977 25.5163 87.0093 25.543 87.046 25.5615C87.1298 25.6037 87.2888 25.5987 87.3827 25.5929C87.4234 25.5903 87.4674 25.5863 87.498 25.5596C87.5078 25.5512 87.5315 24.9818 87.564 24.6723C87.5813 24.507 87.617 24.5091 87.6191 24.5025C87.6226 24.5186 87.6643 24.4758 87.6793 24.6374C87.7099 24.966 87.7253 25.6135 87.7524 25.6328C87.7977 25.6658 87.8568 25.6724 87.913 25.6774C88.0551 25.6901 88.2976 25.6985 88.4222 25.6291C88.5265 25.571 88.5968 25.464 88.6317 25.3502C88.6665 25.2366 88.6692 25.1157 88.6649 24.9969C88.6633 24.958 88.6612 24.4964 88.65 24.4592C88.6341 24.4053 88.9362 23.303 88.9886 23.0627C89.1278 22.4231 89.0309 22.2929 89.0309 21.6496C89.0309 20.6298 91.1474 20.3997 91.3846 20.3997C91.6047 20.3997 93.0993 20.231 93.2822 20.1512C93.3961 20.1016 93.8662 19.8491 93.9881 19.7704C94.2666 19.5906 94.911 19.1509 95.2536 18.6618C95.5523 18.2351 95.6454 17.1595 95.8496 16.6804C95.9707 16.3965 95.9699 16.1702 95.7216 15.9323ZM84.7437 20.1444C84.7147 20.3163 84.5454 20.5334 84.3865 20.5986C84.1557 20.6931 83.8922 20.6348 83.7165 20.3929C83.593 20.2231 83.4431 20.072 83.3106 19.9083C83.0071 19.5341 82.9472 19.537 82.6582 19.9083C82.5288 20.0747 82.3757 20.2228 82.2522 20.3929C82.0765 20.6345 81.813 20.6931 81.5825 20.5986C81.4236 20.5334 81.254 20.3163 81.225 20.1444C80.998 18.8044 81.2154 17.5194 81.8703 16.3308C82.0941 15.9246 82.245 15.4012 82.7575 15.1894C82.8312 15.159 82.9078 15.1387 82.9842 15.1282C83.0609 15.1387 83.1376 15.159 83.2113 15.1894C83.6558 15.3732 83.9425 16.012 84.0985 16.2951C84.7533 17.4838 84.9708 18.8044 84.7437 20.1444ZM83.8041 14.6795C83.8041 14.5015 84.3 14.0412 84.8688 14.2403C85.0704 14.3108 85.7877 14.3005 85.94 14.282C86.1913 14.2517 86.4937 14.1368 86.6824 14.01C87.4117 13.5202 87.3659 13.386 88.0173 12.8024C88.8135 12.0888 89.5125 11.2702 90.2823 10.5263C90.6073 10.2118 90.9853 9.93737 91.3777 9.71C91.6601 9.54653 92.6617 9.45727 92.9875 9.39653C93.3581 9.32708 93.6701 9.49319 93.6538 9.8732C93.6352 10.3145 93.6075 10.7676 93.4898 11.1899C93.1411 12.4432 92.8643 13.9456 92.1437 15.0368C92.0697 15.1493 91.688 15.5148 91.5701 15.5879C90.9685 15.9616 90.4271 16.3139 89.7536 16.4826C89.6615 16.5056 89.1254 16.2117 89.0019 16.1628C88.0298 15.7775 87.4503 15.7355 86.4125 15.6452C86.2331 15.6296 84.6011 15.1686 83.8041 14.6795ZM82.1647 14.6795C81.3677 15.1686 79.736 15.6296 79.5566 15.6452C78.5184 15.7355 77.9392 15.7775 76.9668 16.1628C76.8433 16.2117 76.3072 16.5056 76.2154 16.4826C75.5417 16.3139 75.0002 15.9616 74.3986 15.5879C74.2807 15.5148 73.899 15.1493 73.825 15.0368C73.1047 13.9456 72.8279 12.4432 72.4789 11.1899C72.3613 10.7676 72.3336 10.3145 72.3149 9.8732C72.299 9.49319 72.6107 9.32708 72.9812 9.39653C73.307 9.45727 74.3087 9.54653 74.5911 9.71C74.9835 9.93737 75.3614 10.2118 75.6867 10.5263C76.4563 11.2702 77.1555 12.0888 77.9514 12.8024C78.6031 13.386 78.557 13.5202 79.2864 14.01C79.4751 14.1368 79.7778 14.2517 80.029 14.282C80.181 14.3005 80.8984 14.3108 81.0999 14.2403C81.6687 14.0412 82.1647 14.5213 82.1647 14.6795Z" fill="white"/>
<path d="M164.489 17.99V17.2292H164.214V17.0903H164.923V17.2292H164.648V17.99H164.489Z" fill="white"/>
<path d="M165.841 17.99V17.2952L165.563 17.99H165.495L165.217 17.2952V17.99H165.058V17.0903H165.282L165.529 17.708L165.776 17.0903H166V17.99H165.841Z" fill="white"/>
</svg>
