<svg width="140" height="156" viewBox="0 0 140 156" fill="none" xmlns="http://www.w3.org/2000/svg">
<path opacity="0.2" d="M3.27346 40.4536C2.76396 41.3287 2.49698 42.3238 2.50003 43.3364V112.665C2.5054 113.666 2.77474 114.648 3.28087 115.512C3.78699 116.377 4.51202 117.092 5.38284 117.586L67.2578 152.391C68.0921 152.868 69.0394 153.111 70 153.094V153.094L70.6328 78.0005L3.27346 40.4536Z" fill="#CACACA"/>
<path d="M137.5 112.664V43.3363C137.495 42.3349 137.225 41.3526 136.719 40.4885C136.213 39.6244 135.488 38.909 134.617 38.4145L72.7422 3.60977C71.9085 3.12841 70.9627 2.875 70 2.875C69.0373 2.875 68.0915 3.12841 67.2578 3.60977L5.38281 38.4145C4.512 38.909 3.78697 39.6244 3.28084 40.4885C2.77471 41.3526 2.50538 42.3349 2.5 43.3363V112.664C2.50538 113.666 2.77471 114.648 3.28084 115.512C3.78697 116.376 4.512 117.092 5.38281 117.586L67.2578 152.391C68.0915 152.872 69.0373 153.126 70 153.126C70.9627 153.126 71.9085 152.872 72.7422 152.391L134.617 117.586C135.488 117.092 136.213 116.376 136.719 115.512C137.225 114.648 137.495 113.666 137.5 112.664V112.664Z" stroke="#CACACA" stroke-width="5" stroke-linecap="round" stroke-linejoin="round"/>
<path d="M104.453 95.2266V58.6641L36.25 21.0469" stroke="#CACACA" stroke-width="5" stroke-linecap="round" stroke-linejoin="round"/>
<path d="M136.727 40.4536L70.6329 78.0005L3.2735 40.4536" stroke="#CACACA" stroke-width="5" stroke-linecap="round" stroke-linejoin="round"/>
<path d="M70.6328 78L70 153.094" stroke="#CACACA" stroke-width="5" stroke-linecap="round" stroke-linejoin="round"/>
</svg>
