<svg width="140" height="140" viewBox="0 0 140 140" fill="none" xmlns="http://www.w3.org/2000/svg">
<path opacity="0.2" d="M70 137.5C107.279 137.5 137.5 107.279 137.5 70C137.5 32.7208 107.279 2.5 70 2.5C32.7208 2.5 2.5 32.7208 2.5 70C2.5 107.279 32.7208 137.5 70 137.5Z" fill="#CACACA"/>
<path d="M70 30.625V41.875" stroke="#CACACA" stroke-width="5" stroke-linecap="round" stroke-linejoin="round"/>
<path d="M70 98.125V109.375" stroke="#CACACA" stroke-width="5" stroke-linecap="round" stroke-linejoin="round"/>
<path d="M70 137.5C107.279 137.5 137.5 107.279 137.5 70C137.5 32.7208 107.279 2.5 70 2.5C32.7208 2.5 2.5 32.7208 2.5 70C2.5 107.279 32.7208 137.5 70 137.5Z" stroke="#CACACA" stroke-width="5" stroke-linecap="round" stroke-linejoin="round"/>
<path d="M53.125 98.125H78.4375C82.1671 98.125 85.744 96.6434 88.3812 94.0062C91.0184 91.369 92.5 87.7921 92.5 84.0625C92.5 80.3329 91.0184 76.756 88.3812 74.1188C85.744 71.4816 82.1671 70 78.4375 70H61.5625C57.8329 70 54.256 68.5184 51.6188 65.8812C48.9816 63.244 47.5 59.6671 47.5 55.9375C47.5 52.2079 48.9816 48.631 51.6188 45.9938C54.256 43.3566 57.8329 41.875 61.5625 41.875H86.875" stroke="#CACACA" stroke-width="5" stroke-linecap="round" stroke-linejoin="round"/>
</svg>
