<svg width="481" height="481" viewBox="0 0 481 481" fill="none" xmlns="http://www.w3.org/2000/svg">
<path d="M476.907 298.224C461.734 283.569 461.001 265.798 466.09 245.596C468.119 237.552 472.175 179.453 472.175 177.397C472.175 167.241 472.784 146.92 471.363 137.47C465.307 97.2188 455.183 88.2002 432.091 65.1107C410.296 43.3158 379.98 28.6558 350.805 18.0565C342.019 14.8637 332.926 12.5193 323.941 9.92042C295.317 1.64612 263.679 0.126066 240.384 0H240.367C217.071 0.126066 185.436 1.64612 156.809 9.92042C147.824 12.5193 138.731 14.8637 129.945 18.0565C100.77 28.6558 70.4538 43.3158 48.6589 65.1107C25.5695 88.2002 15.443 97.2188 9.38699 137.47C7.96633 146.92 12.6308 237.552 14.6575 245.596C19.7511 265.798 19.0165 283.569 3.84251 298.224C-0.768597 302.677 -0.785592 306.915 1.46178 312.229C5.25588 321.195 7.27053 341.14 12.5362 349.317C18.248 358.19 30.8618 366.7 36.033 370.067C38.2973 371.541 47.0249 376.268 49.1414 377.199C52.5355 378.688 80.4252 381.849 84.3817 381.849C88.0327 381.849 128.09 386.153 128.09 405.247C128.09 417.286 126.289 419.725 128.878 431.694C129.85 436.193 135.46 456.825 135.162 457.836C134.954 458.534 134.915 467.172 134.888 467.899C134.806 470.122 134.857 472.384 135.504 474.513C136.151 476.644 137.455 478.646 139.397 479.735C141.71 481.032 146.21 480.874 148.852 480.634C149.892 480.542 150.988 480.421 151.832 479.805C152.343 479.432 152.772 466.767 153.337 460.614C153.599 457.756 154.244 458.936 154.305 458.645C154.343 458.764 155.08 457.957 155.386 460.893C155.992 466.699 156.373 478.268 156.559 478.433C157.127 478.932 157.941 479.005 158.698 479.054C160.443 479.165 163.391 479.257 164.952 478.467C165.634 478.12 166.228 477.621 166.906 477.264C168.395 476.484 169.023 476.459 170.662 476.079C171.166 475.962 171.68 475.8 172.063 475.451C172.487 475.058 172.693 474.486 172.807 473.921C173.021 472.864 173.302 471.751 172.982 470.721C172.858 470.328 172.315 460.267 172.429 454.747C172.495 451.455 173.27 451.639 173.193 451.309C173.343 451.835 173.673 451.678 174.058 454.839C174.756 460.575 175.641 471.029 175.983 472.333C176.121 472.847 175.918 473.431 176.182 473.899C176.558 474.566 177.44 474.825 178.218 474.743C178.997 474.661 179.712 474.312 180.437 474.025C182.269 473.301 183.137 472.971 185.113 473.063C187.033 473.155 187.972 473.611 189.652 472.702C191.208 471.86 191.952 470.028 191.994 468.299C192.008 467.676 191.783 458.948 192.076 454.279C192.287 450.926 193.072 451.251 192.968 450.812C193.138 450.786 193.264 452.328 193.298 452.604C193.535 454.531 195.053 469.904 196.537 471.162C198.008 472.408 200.12 472.457 202.05 472.44C204.697 472.418 205.083 472.399 207.73 472.377C208.523 472.372 209.332 472.362 210.082 472.093C210.802 471.836 211.422 471.354 211.953 470.803C213.345 469.361 214.213 457.13 214.981 451.021C215.335 448.218 216.019 449.716 216.101 448.781C216.121 449.367 216.722 448.441 216.938 451.394C217.316 456.558 217.403 466.641 217.476 467.664C217.534 468.457 217.636 469.327 218.235 469.868C218.623 470.214 219.153 470.365 219.672 470.454C223.595 471.131 228.72 469.097 232.66 469.671C234.284 469.909 235.898 470.59 237.511 470.285C238.638 470.071 238.931 458.9 239.38 452.604C239.613 449.297 240.25 449.03 240.291 448.744C241.232 447.874 240.924 451.966 240.963 452.977C241.082 453.809 241.521 469.96 243.239 470.285C244.852 470.59 246.466 469.909 248.09 469.671C252.03 469.097 257.155 471.131 261.078 470.454C261.597 470.365 262.13 470.214 262.515 469.868C263.114 469.327 263.216 468.457 263.274 467.664C263.347 466.653 263.306 456.997 263.681 451.86C263.904 448.824 264.629 449.379 264.651 448.781C264.734 449.736 264.981 448.795 265.345 451.673C266.118 457.768 267.417 469.373 268.797 470.803C269.328 471.354 269.948 471.836 270.668 472.093C271.418 472.362 272.227 472.372 273.022 472.377C275.667 472.399 276.055 472.418 278.7 472.44C280.63 472.457 282.742 472.408 284.213 471.162C285.127 470.386 285.762 459.307 286.497 453.629C286.953 450.085 287.716 450.803 287.782 450.812C287.682 451.232 287.813 450.441 288.012 453.629C288.306 458.379 288.742 467.659 288.756 468.299C288.798 470.028 289.542 471.86 291.098 472.702C292.778 473.611 293.717 473.155 295.637 473.063C297.613 472.971 298.481 473.301 300.313 474.025C301.038 474.312 301.753 474.661 302.532 474.743C303.312 474.825 304.195 474.566 304.568 473.899C304.832 473.431 304.629 472.847 304.764 472.333C305.082 471.138 305.851 460.534 306.512 455.026C306.973 451.207 307.383 451.915 307.557 451.309C307.47 451.68 308.11 451.544 308.192 455.399C308.306 460.684 307.882 470.357 307.771 470.721C307.448 471.751 307.729 472.864 307.943 473.921C308.057 474.486 308.263 475.058 308.689 475.451C309.07 475.8 309.584 475.962 310.088 476.079C311.727 476.459 312.357 476.484 313.846 477.264C314.522 477.621 315.116 478.12 315.798 478.467C317.359 479.257 320.307 479.165 322.052 479.054C322.809 479.005 323.623 478.932 324.191 478.433C324.375 478.273 324.816 467.618 325.42 461.824C325.742 458.728 326.404 458.767 326.445 458.645C326.508 458.946 327.284 458.144 327.561 461.172C328.128 467.322 328.416 479.439 328.918 479.805C329.762 480.421 330.858 480.542 331.898 480.634C334.54 480.874 339.04 481.032 341.355 479.735C343.295 478.646 344.601 476.644 345.249 474.513C345.893 472.384 345.944 470.122 345.864 467.899C345.838 467.172 345.794 458.534 345.59 457.836C345.292 456.825 350.9 436.193 351.874 431.694C354.464 419.725 352.66 417.286 352.66 405.247C352.66 386.153 391.966 381.849 396.368 381.849C400.458 381.849 428.215 378.688 431.609 377.199C433.725 376.268 442.453 371.541 444.717 370.067C449.888 366.7 461.857 358.469 468.216 349.317C473.763 341.329 475.494 321.195 479.288 312.229C481.536 306.915 481.519 302.677 476.907 298.224ZM273.049 377.071C272.509 380.283 269.362 384.346 266.411 385.568C262.127 387.338 257.233 386.245 253.972 381.721C251.676 378.54 248.895 375.713 246.432 372.649C240.796 365.643 239.688 365.696 234.32 372.649C231.915 375.762 229.074 378.538 226.778 381.721C223.517 386.245 218.623 387.338 214.339 385.568C211.388 384.346 208.244 380.283 207.703 377.068C203.487 351.986 207.526 327.929 219.687 305.684C223.842 298.081 226.647 288.286 236.16 284.323C237.53 283.75 238.953 283.37 240.374 283.171C241.794 283.367 243.218 283.75 244.59 284.323C252.845 287.76 258.166 299.717 261.063 305.017C273.224 327.265 277.263 351.986 273.049 377.071ZM255.594 274.776C255.594 271.44 264.806 262.826 275.372 266.555C279.112 267.876 292.437 267.677 295.259 267.333C299.925 266.766 305.543 264.615 309.048 262.242C322.593 253.073 321.74 250.564 333.837 239.637C348.621 226.284 361.603 210.957 375.897 197.032C381.936 191.148 388.955 186.008 396.242 181.753C401.484 178.691 420.088 177.023 426.137 175.884C433.017 174.587 438.809 177.695 438.511 184.81C438.162 193.068 437.65 201.551 435.466 209.454C428.985 232.914 423.846 261.037 410.468 281.464C409.094 283.566 402.005 290.408 399.816 291.778C388.644 298.774 378.588 305.366 366.081 308.525C364.374 308.956 354.417 303.456 352.122 302.539C334.067 295.327 323.311 294.539 304.032 292.849C300.701 292.558 270.397 283.93 255.594 274.776ZM225.154 274.776C210.351 283.93 180.049 292.558 176.715 292.849C157.439 294.539 146.683 295.327 128.628 302.539C126.333 303.456 116.378 308.956 114.669 308.525C102.162 305.366 92.1057 298.774 80.9343 291.778C78.7451 290.408 71.6587 283.566 70.2817 281.464C56.9042 261.037 51.7645 232.914 45.2843 209.454C43.1023 201.551 42.5884 193.068 42.2393 184.81C41.9411 177.695 47.7329 174.587 54.6132 175.884C60.6619 177.023 79.2663 178.691 84.5102 181.753C91.7954 186.008 98.8138 191.148 104.855 197.032C119.147 210.957 132.129 226.284 146.913 239.637C159.01 250.564 158.157 253.073 171.702 262.242C175.207 264.615 180.825 266.766 185.491 267.333C188.316 267.677 201.638 267.876 205.378 266.555C215.946 262.826 225.154 271.815 225.154 274.776Z" fill="black"/>
</svg>
