<svg width="22" height="21" viewBox="0 0 22 21" fill="none" xmlns="http://www.w3.org/2000/svg">
<path d="M11.1632 16.634L15.8882 19.634C16.4976 20.0184 17.2476 19.4465 17.0695 18.7434L15.7007 13.3621C15.6637 13.213 15.6696 13.0564 15.7177 12.9104C15.7658 12.7645 15.8542 12.6351 15.9726 12.5371L20.2101 9.00276C20.7632 8.54338 20.482 7.61526 19.7601 7.56838L14.2289 7.21213C14.0779 7.20335 13.9328 7.1508 13.8113 7.06089C13.6898 6.97099 13.597 6.84763 13.5445 6.70588L11.482 1.51213C11.4274 1.36204 11.3279 1.23239 11.1971 1.14077C11.0663 1.04915 10.9104 1 10.7507 1C10.591 1 10.4352 1.04915 10.3044 1.14077C10.1735 1.23239 10.0741 1.36204 10.0195 1.51213L7.95698 6.70588C7.90441 6.84763 7.8117 6.97099 7.69016 7.06089C7.56862 7.1508 7.42353 7.20335 7.2726 7.21213L1.74135 7.56838C1.01948 7.61526 0.738228 8.54338 1.29135 9.00276L5.52885 12.5371C5.64729 12.6351 5.73565 12.7645 5.78375 12.9104C5.83186 13.0564 5.83774 13.213 5.80073 13.3621L4.5351 18.3496C4.31948 19.1934 5.21948 19.8778 5.94135 19.4184L10.3382 16.634C10.4615 16.5556 10.6046 16.514 10.7507 16.514C10.8968 16.514 11.0399 16.5556 11.1632 16.634V16.634Z" stroke="#2C2C2E" stroke-width="2" stroke-linecap="round" stroke-linejoin="round"/>
</svg>
