<svg width="24" height="24" viewBox="0 0 24 24" fill="none" xmlns="http://www.w3.org/2000/svg">
<g clip-path="url(#clip0_530_5447)">
<path fill-rule="evenodd" clip-rule="evenodd" d="M12 24C18.6274 24 24 18.6274 24 12C24 5.37258 18.6274 0 12 0C5.37258 0 0 5.37258 0 12C0 18.6274 5.37258 24 12 24ZM14.2278 5.00386C13.7624 5.00445 13.2962 5.00504 12.8285 5.01181L12.8289 5.01225C12.8166 6.51602 12.8174 8.02015 12.8182 9.52615C12.8186 10.3679 12.8191 11.2102 12.8172 12.0533C12.8152 12.336 12.8155 12.6184 12.8158 12.9007C12.8166 13.6602 12.8175 14.4187 12.7728 15.1794C12.7663 15.3905 12.6531 15.5761 12.5432 15.7564C12.5344 15.7708 12.5257 15.7851 12.517 15.7994C12.1542 16.3529 11.4869 16.7309 10.7906 16.7379C9.74034 16.8249 8.75648 16.0203 8.60825 15.063C8.60713 15.0161 8.60536 14.9689 8.60358 14.9215C8.59344 14.6515 8.58309 14.3762 8.69289 14.1245C8.84912 13.7062 9.14799 13.3476 9.54347 13.1038C10.084 12.7525 10.807 12.7 11.4256 12.8872C11.4256 12.5182 11.4324 12.1494 11.4391 11.7805C11.4481 11.2857 11.4572 10.7909 11.4499 10.2958C10.0957 10.0586 8.6494 10.4594 7.61691 11.3008C6.706 12.0231 6.11915 13.085 6.00692 14.195C5.99565 14.4843 5.99815 14.7739 6.0144 15.063C6.14346 16.4281 7.02959 17.7 8.28887 18.3948C9.04874 18.8139 9.93954 19.0414 10.8313 18.9937C12.2851 18.971 13.7005 18.2416 14.5161 17.1229C15.023 16.4509 15.3105 15.6393 15.3592 14.8237C15.3718 13.7034 15.371 12.581 15.3702 11.4572C15.3698 10.8782 15.3694 10.2988 15.3709 9.71913C15.6949 9.91733 16.026 10.1111 16.3814 10.2617C17.1974 10.6239 18.1008 10.7989 19 10.8265V8.47744C18.0405 8.37724 17.0543 8.08104 16.3571 7.43394C15.6584 6.8026 15.3152 5.89298 15.2661 5C14.9203 5.00299 14.5743 5.00343 14.2278 5.00386Z" fill="white"/>
</g>
<defs>
<clipPath id="clip0_530_5447">
<rect width="24" height="24" fill="white"/>
</clipPath>
</defs>
</svg>
